# xmcd
#
# Track frame offsets:
#	150
#	10998
#	26285
#	37637
#	60442
#	72847
#	82584
#	94667
#	112626
#	125384
#	138794
#	158359
#	175427
#	193929
#	207062
#
# Disc length: 2980 seconds
#
# Revision: 0
# Processed by: cddbd v1.5.2PL0 Copyright (c) Steve Scherf et al.
# Submitted via: EZCDAudioConverter 3.1.7.1
#
DISCID=a40ba20f
DTITLE=הגבעתרון - לקט שירים
DYEAR=2014
DGENRE=HEBREW
TTITLE0=שוב יוצא הזמר
TTITLE1=הללויה( אדם חוזר)
TTITLE2=שירת העשבים
TTITLE3=מחרוזת כל העולם כולו
TTITLE4=עוד נשוב מחר
TTITLE5=רוצים לחוש את הקירבה
TTITLE6=פנס בשלכת
TTITLE7=שובה של נטשה
TTITLE8=החיטה צומחת שוב
TTITLE9=שחרחורת
TTITLE10=חמישים
TTITLE11=בלדה לאשה
TTITLE12=גבעה אחת
TTITLE13=שבילי השנים
TTITLE14=סבא שלי
EXTD=
EXTT0=
EXTT1=
EXTT2=
EXTT3=
EXTT4=
EXTT5=
EXTT6=
EXTT7=
EXTT8=
EXTT9=
EXTT10=
EXTT11=
EXTT12=
EXTT13=
EXTT14=
PLAYORDER=
